<svg height="464pt" viewBox="0 0 464 464" width="464pt" xmlns="http://www.w3.org/2000/svg"><path d="m432 128c0 8.835938-7.164062 16-16 16s-16-7.164062-16-16 7.164062-16 16-16 16 7.164062 16 16zm0 0" fill="#f1f2f2"/><path d="m88 64c0-8.835938-7.164062-16-16-16h-8c-8.835938 0-16 7.164062-16 16v16h40zm0 0" fill="#a7a9ac"/><path d="m432 80h-8l-384 384h392c17.671875 0 32-14.328125 32-32v-320c0-17.671875-14.328125-32-32-32zm0 0" fill="#202b6c"/><path d="m368 80c-17.671875 0-32-14.328125-32-32v-16c0-17.671875-14.328125-32-32-32h-144c-17.671875 0-32 14.328125-32 32v16c0 17.671875-14.328125 32-32 32h-64c-17.671875 0-32 14.328125-32 32v320c0 17.671875 14.328125 32 32 32h8l384-384zm0 0" fill="#2b3990"/><path d="m232 104c-65.75-.058594-124.832031 40.144531-148.902344 101.332031-24.074218 61.1875-8.222656 130.871094 39.941406 175.628907l225.921876-225.921876c-30.179688-32.558593-72.566407-51.058593-116.960938-51.039062zm0 0" fill="#bcbec0"/><path d="m348.960938 155.039062-225.921876 225.921876c62.957032 58.855468 161.242188 57.203124 222.183594-3.738282s62.59375-159.226562 3.738282-222.183594zm0 0" fill="#a7a9ac"/><path d="m232 136c-52.808594-.074219-100.222656 32.335938-119.332031 81.566406-19.109375 49.226563-5.976563 105.140625 33.050781 140.714844l180.5625-180.5625c-24.15625-26.550781-58.382812-41.699219-94.28125-41.71875zm0 0" fill="#58595b"/><path d="m145.71875 358.28125c50.410156 46.410156 128.457031 44.800781 176.910156-3.652344s50.0625-126.5 3.652344-176.910156zm0 0" fill="#414042"/></svg>